# xmcd
#
# Track frame offsets: 
#        151
#        13633
#        25286
#        34745
#        49637
#        63170
#        76514
#        88480
#        99683
#        110162
#        126437
#        136819
#        149425
#        161831
#        175875
#        187396
#        199643
#        212066
#        223619
#        234558
#
# Disc length: 3658 seconds
#
# Revision: 0
# Processed by: cddbd v1.5.2PL0 Copyright (c) Steve Scherf et al.
# Submitted via: ExactAudioCopy v0.95b3
#
DISCID=280e4814
DTITLE=Johnny Paycheck - Master Classics
DYEAR=2007
DGENRE=Country
TTITLE0=(Please Don't Take Her) She's All I Got
TTITLE1=Take This Job And Shove It
TTITLE2=Mr. Lovemaker
TTITLE3=Someone To Give My Love To
TTITLE4=I'm The Only Hell (Momma Ever Raised)
TTITLE5=Song And Dance Man
TTITLE6=Something About You I Love
TTITLE7=For A Minute There
TTITLE8=A-11
TTITLE9=Green, Green Grass Of Home
TTITLE10=Don't Monkey With Another Monkey's Monkey
TTITLE11=Heaven's Almost As Big As Texas
TTITLE12=Close All The Honky Tonks
TTITLE13=Almost Persuaded
TTITLE14=Release Me
TTITLE15=All The Time
TTITLE16=Crazy Arms
TTITLE17=Heartaches By The Number
TTITLE18=Apartment No. 9
TTITLE19=Danny Boy
EXTD=
EXTT0=
EXTT1=
EXTT2=
EXTT3=
EXTT4=
EXTT5=
EXTT6=
EXTT7=
EXTT8=
EXTT9=
EXTT10=
EXTT11=
EXTT12=
EXTT13=
EXTT14=
EXTT15=
EXTT16=
EXTT17=
EXTT18=
EXTT19=
PLAYORDER=
